<svg width="45" height="45" viewBox="0 0 45 45" fill="none" xmlns="http://www.w3.org/2000/svg">
<path fill-rule="evenodd" clip-rule="evenodd" d="M3.75 1.875C2.71447 1.875 1.875 2.71447 1.875 3.75C1.875 4.78553 2.71447 5.625 3.75 5.625H6.03604L12.719 32.3567C10.7489 33.2318 9.375 35.2054 9.375 37.5C9.375 40.6067 11.8934 43.125 15 43.125C18.1066 43.125 20.625 40.6067 20.625 37.5C20.625 36.8426 20.5121 36.2115 20.3049 35.625H28.4451C28.2379 36.2115 28.125 36.8426 28.125 37.5C28.125 40.6067 30.6433 43.125 33.75 43.125C36.8567 43.125 39.375 40.6067 39.375 37.5C39.375 34.3933 36.8567 31.875 33.75 31.875H16.464L15.5265 28.125H33.75C37.6204 28.125 39.9411 25.6798 41.2288 22.9798C42.4873 20.3413 42.9253 17.188 43.0781 14.8944C43.2907 11.7003 40.6506 9.375 37.7271 9.375H10.839L9.67408 4.71549C9.25672 3.04611 7.7568 1.875 6.03604 1.875H3.75ZM33.75 24.375H14.589L11.7765 13.125H37.7271C38.7641 13.125 39.3868 13.8877 39.3364 14.6452C39.1939 16.7854 38.7949 19.3721 37.8442 21.3654C36.9229 23.2971 35.6627 24.375 33.75 24.375ZM33.75 39.3634C32.7208 39.3634 31.8866 38.5292 31.8866 37.5C31.8866 36.4708 32.7208 35.6366 33.75 35.6366C34.7792 35.6366 35.6134 36.4708 35.6134 37.5C35.6134 38.5292 34.7792 39.3634 33.75 39.3634ZM13.1366 37.5C13.1366 38.5292 13.9708 39.3634 15 39.3634C16.0291 39.3634 16.8634 38.5292 16.8634 37.5C16.8634 36.4708 16.0291 35.6366 15 35.6366C13.9708 35.6366 13.1366 36.4708 13.1366 37.5Z" fill="white"/>
</svg>
